<svg xmlns="http://www.w3.org/2000/svg" xmlns:xlink="http://www.w3.org/1999/xlink" version="1.1" width="25" height="25" viewBox="0 0 256 256" xml:space="preserve">

<defs>
</defs>
<g style="stroke: none; stroke-width: 0; stroke-dasharray: none; stroke-linecap: butt; stroke-linejoin: miter; stroke-miterlimit: 10; fill: none; fill-rule: nonzero; opacity: 1;" transform="translate(1.4065934065934016 1.4065934065934016) scale(2.81 2.81)" >
	<path d="M 25.261 33.117 c 2.858 -3.93 5.295 -8.178 6.717 -11.911 h 9.172 c 0.552 0 1 -0.448 1 -1 s -0.448 -1 -1 -1 H 27.194 v -2.916 c 0 -0.552 -0.448 -1 -1 -1 s -1 0.448 -1 1 v 2.916 H 11.777 c -0.552 0 -1 0.448 -1 1 s 0.448 1 1 1 h 18.059 c -1.334 3.245 -3.465 6.91 -5.926 10.346 c -1.757 -2.169 -3.22 -4.526 -4.328 -7.015 c -0.225 -0.505 -0.815 -0.73 -1.32 -0.507 c -0.504 0.225 -0.731 0.816 -0.507 1.32 c 1.246 2.8 2.92 5.437 4.933 7.849 c -2.417 3.162 -5.061 6.029 -7.545 8.04 c -0.429 0.348 -0.495 0.978 -0.148 1.407 c 0.198 0.244 0.487 0.371 0.778 0.371 c 0.221 0 0.444 -0.073 0.629 -0.223 c 2.546 -2.062 5.204 -4.911 7.644 -8.059 c 1.341 1.431 2.801 2.773 4.386 3.991 c 0.182 0.14 0.396 0.207 0.609 0.207 c 0.3 0 0.597 -0.134 0.793 -0.391 c 0.336 -0.438 0.254 -1.066 -0.184 -1.402 C 28.056 35.917 26.591 34.565 25.261 33.117 z" style="stroke: none; stroke-width: 1; stroke-dasharray: none; stroke-linecap: butt; stroke-linejoin: miter; stroke-miterlimit: 10; fill: rgb(0,0,0); fill-rule: nonzero; opacity: 1;" transform=" matrix(1 0 0 1 0 0) " stroke-linecap="round" />
	<path d="M 63.49 33.603 c -4.796 0 -8.697 3.901 -8.697 8.697 v 17.661 c 0 0.553 0.447 1 1 1 s 1 -0.447 1 -1 V 49.084 h 13.394 v 10.877 c 0 0.553 0.447 1 1 1 s 1 -0.447 1 -1 V 42.3 C 72.187 37.504 68.285 33.603 63.49 33.603 z M 70.187 47.084 H 56.793 V 42.3 c 0 -3.692 3.004 -6.697 6.697 -6.697 c 3.692 0 6.696 3.004 6.696 6.697 V 47.084 z" style="stroke: none; stroke-width: 1; stroke-dasharray: none; stroke-linecap: butt; stroke-linejoin: miter; stroke-miterlimit: 10; fill: rgb(0,0,0); fill-rule: nonzero; opacity: 1;" transform=" matrix(1 0 0 1 0 0) " stroke-linecap="round" />
	<path d="M 80.959 26.7 H 53.02 v -8.92 c 0 -4.985 -4.056 -9.042 -9.041 -9.042 H 9.041 C 4.056 8.738 0 12.794 0 17.779 v 24.372 c 0 4.986 4.056 9.042 9.041 9.042 L 9.058 62.3 c 0 0.404 0.244 0.77 0.617 0.924 c 0.124 0.052 0.254 0.076 0.383 0.076 c 0.26 0 0.516 -0.102 0.707 -0.293 L 22.58 51.192 h 14.4 v 8.921 c 0 4.985 4.056 9.041 9.042 9.041 H 67.42 l 11.815 11.814 c 0.191 0.191 0.447 0.293 0.707 0.293 c 0.129 0 0.259 -0.024 0.383 -0.076 c 0.374 -0.154 0.617 -0.52 0.617 -0.924 V 69.154 h 0.017 c 4.985 0 9.041 -4.056 9.041 -9.041 V 35.741 C 90 30.756 85.944 26.7 80.959 26.7 z M 22.166 49.192 c -0.265 0 -0.52 0.105 -0.707 0.293 l -10.401 10.4 v -9.693 c 0 -0.553 -0.448 -1 -1 -1 H 9.041 C 5.159 49.192 2 46.033 2 42.151 V 17.779 c 0 -3.883 3.159 -7.042 7.041 -7.042 h 34.938 c 3.883 0 7.041 3.159 7.041 7.042 v 8.92 h -4.998 c -4.985 0 -9.042 4.056 -9.042 9.042 v 13.451 H 22.166 z M 88 60.113 c 0 3.883 -3.158 7.041 -7.041 7.041 h -1.017 c -0.553 0 -1 0.447 -1 1 v 9.693 l -10.401 -10.4 c -0.188 -0.188 -0.441 -0.293 -0.707 -0.293 H 46.021 c -3.883 0 -7.042 -3.158 -7.042 -7.041 V 35.741 c 0 -3.883 3.159 -7.042 7.042 -7.042 h 34.938 c 3.883 0 7.041 3.159 7.041 7.042 V 60.113 z" style="stroke: none; stroke-width: 1; stroke-dasharray: none; stroke-linecap: butt; stroke-linejoin: miter; stroke-miterlimit: 10; fill: rgb(0,0,0); fill-rule: nonzero; opacity: 1;" transform=" matrix(1 0 0 1 0 0) " stroke-linecap="round" />
</g>
</svg>